<?xml version="1.0" encoding="UTF-8" standalone="no"?>
<!DOCTYPE svg PUBLIC "-//W3C//DTD SVG 1.1//EN" "http://www.w3.org/Graphics/SVG/1.1/DTD/svg11.dtd">
<svg width="100%" height="100%" viewBox="0 0 1200 1200" version="1.1" xmlns="http://www.w3.org/2000/svg" xmlns:xlink="http://www.w3.org/1999/xlink" xml:space="preserve" xmlns:serif="http://www.serif.com/" style="fill-rule:evenodd;clip-rule:evenodd;stroke-linejoin:round;stroke-miterlimit:1.41421;">
    <path id="Combined.2e..-Shape" d="M0,0L1200,0L1200,1200L0,1200L0,0ZM600,1023C833.616,1023 1023,833.616 1023,600C1023,366.384 833.616,177 600,177C366.384,177 177,366.384 177,600C177,833.616 366.384,1023 600,1023Z" style="fill:white;"/>
    <g>
        <g>
            <path d="M465.386,516.001L431.116,516.001L431.116,383.685L465.386,383.685L488.661,437.381L488.661,383.685L522.931,383.685L522.931,516.001L488.661,516.001L465.386,462.305L465.386,516.001Z" style="fill:rgb(255,252,252);fill-rule:nonzero;"/>
            <rect x="531.178" y="383.685" width="34.27" height="132.316" style="fill:rgb(255,252,252);"/>
            <path d="M665.51,516.001L590.189,516.001L573.695,499.507L573.695,400.179L590.189,383.685L665.51,383.685L665.51,417.955L606.682,417.955L606.682,481.731L665.51,481.731L665.51,516.001Z" style="fill:rgb(255,252,252);fill-rule:nonzero;"/>
            <path d="M759.707,499.507L743.214,516.001L684.386,516.001L667.892,499.507L667.892,400.179L684.386,383.685L743.214,383.685L759.707,400.179L759.707,499.507ZM726.72,481.731L726.72,417.955L700.88,417.955L700.88,481.731L726.72,481.731Z" style="fill:rgb(255,252,252);fill-rule:nonzero;"/>
        </g>
        <g>
            <path d="M300.083,699.265L267.096,699.265L267.096,656.198L242.538,656.198L242.538,699.265L208.268,699.265L208.268,566.948L242.538,566.948L242.538,621.927L265.813,621.927L265.813,566.948L300.083,566.948L300.083,699.265Z" style="fill:rgb(255,252,252);fill-rule:nonzero;"/>
            <path d="M389.939,545.014L373.483,561.471L357.061,544.974L373.388,528.646L389.939,545.014ZM351.637,545.014L335.083,561.639L318.535,545.014L335.086,528.646L351.637,545.014ZM400.145,682.771L383.651,699.265L324.824,699.265L308.33,682.771L308.33,566.948L341.317,566.948L341.317,664.994L367.157,664.994L367.157,566.948L400.145,566.948L400.145,682.771Z" style="fill:rgb(255,252,252);fill-rule:nonzero;"/>
            <path d="M408.208,682.771L424.702,699.265L500.023,699.265L500.023,664.994L442.479,664.994L442.479,566.948L408.208,566.948L408.208,682.771Z" style="fill:rgb(255,252,252);fill-rule:nonzero;"/>
            <path d="M592.022,682.771L575.528,699.265L500.207,699.265L500.207,664.994L559.034,664.994L559.034,649.783L516.7,649.783L500.207,633.29L500.207,583.442L516.7,566.948L592.022,566.948L592.022,601.219L533.194,601.219L533.194,615.513L575.528,615.513L592.022,632.007L592.022,682.771Z" style="fill:rgb(255,252,252);fill-rule:nonzero;"/>
            <path d="M691.35,699.265L616.029,699.265L599.535,682.771L599.535,583.442L616.029,566.948L691.35,566.948L691.35,601.219L632.523,601.219L632.523,664.994L691.35,664.994L691.35,699.265Z" style="fill:rgb(255,252,252);fill-rule:nonzero;"/>
            <path d="M785.548,699.265L752.56,699.265L752.56,656.198L728.003,656.198L728.003,699.265L693.733,699.265L693.733,566.948L728.003,566.948L728.003,621.927L751.278,621.927L751.278,566.948L785.548,566.948L785.548,699.265Z" style="fill:rgb(255,252,252);fill-rule:nonzero;"/>
            <path d="M885.61,699.265L810.288,699.265L793.795,682.771L793.795,583.442L810.288,566.948L885.61,566.948L885.61,601.219L828.065,601.219L828.065,616.063L871.132,616.063L871.132,650.333L828.065,650.333L828.065,664.994L885.61,664.994L885.61,699.265Z" style="fill:rgb(255,252,252);fill-rule:nonzero;"/>
            <path d="M982.556,699.265L949.019,699.265L949.019,656.198L924.278,656.198L924.278,699.265L890.741,699.265L890.741,566.948L966.062,566.948L982.556,583.442L982.556,620.095L966.062,636.589L982.556,653.082L982.556,699.265ZM949.019,610.015L949.019,601.219L924.278,601.219L924.278,610.015L949.019,610.015Z" style="fill:rgb(255,252,252);fill-rule:nonzero;"/>
        </g>
    </g>
    <circle cx="600" cy="600" r="425.537" style="fill:url(#_Radial1);"/>
    <defs>
        <radialGradient id="_Radial1" cx="0" cy="0" r="1" gradientUnits="userSpaceOnUse" gradientTransform="matrix(425.537,0,0,425.537,600,600)"><stop offset="0" style="stop-color:black;stop-opacity:0"/><stop offset="0.94" style="stop-color:black;stop-opacity:0"/><stop offset="1" style="stop-color:black;stop-opacity:0.341176"/></radialGradient>
    </defs>
</svg>
