<?xml version="1.0" encoding="UTF-8" standalone="no"?><!DOCTYPE svg PUBLIC "-//W3C//DTD SVG 1.1//EN" "http://www.w3.org/Graphics/SVG/1.1/DTD/svg11.dtd"><svg width="100%" height="100%" viewBox="0 0 426 426" version="1.1" xmlns="http://www.w3.org/2000/svg" xmlns:xlink="http://www.w3.org/1999/xlink" xml:space="preserve" xmlns:serif="http://www.serif.com/" style="fill-rule:evenodd;clip-rule:evenodd;stroke-linejoin:round;stroke-miterlimit:1.41421;"><g><path d="M128.096,299.596l49.148,-159.434l32.918,0.231c0,0 14.822,130.93 43.405,129.889c26.825,-0.976 79.533,-139.776 68.557,-158.036c-10.976,-18.261 -189.212,-51.11 -218.602,-14.26c-29.39,36.851 -34.435,187.19 0.566,224.912c35.001,37.722 167.467,-1.796 209.44,1.419c15.293,1.171 57.647,16.213 42.4,17.87c-38.367,4.172 -224.959,51.415 -272.601,7.159c-47.643,-44.255 -58.307,-228.104 -13.255,-272.692c45.053,-44.589 252.913,-30.505 283.57,5.163c30.657,35.668 -63.843,207.718 -99.627,208.844c-43.132,1.356 -56.955,-104.901 -56.955,-104.901l-37.636,113.37l-31.328,0.466Z"/></g></svg>