<?xml version="1.0" encoding="UTF-8" standalone="no"?><!DOCTYPE svg PUBLIC "-//W3C//DTD SVG 1.1//EN" "http://www.w3.org/Graphics/SVG/1.1/DTD/svg11.dtd"><svg width="100%" height="100%" viewBox="0 0 426 426" version="1.1" xmlns="http://www.w3.org/2000/svg" xmlns:xlink="http://www.w3.org/1999/xlink" xml:space="preserve" xmlns:serif="http://www.serif.com/" style="fill-rule:evenodd;clip-rule:evenodd;stroke-linejoin:round;stroke-miterlimit:1.41421;"><path d="M312.283,396.292l-198.566,0c-54.796,0 -99.284,-44.487 -99.284,-99.283l0,-168.018c0,-54.796 44.487,-99.283 99.284,-99.283l198.566,0c54.797,0 99.284,44.487 99.284,99.283l0,168.018c0,54.796 -44.487,99.283 -99.284,99.283Zm-14.546,-337.491l-157.882,0l0,63.366l-41.008,41.008l0,-99.12c-32.286,11.967 -55.321,43.056 -55.321,79.483l0,138.924c0,46.768 37.97,84.737 84.737,84.737l169.474,0c46.767,0 84.737,-37.969 84.737,-84.737l0,-138.924c0,-46.767 -37.969,-84.736 -84.737,-84.737Zm-155.62,265.743l-43.27,0l0,-141.977l41.008,-41.007l0,71.44c2.743,-12.835 32.66,-62.44 78.244,-63.226c76.243,-1.315 112.4,110.396 112.054,178.079l-37.858,0c-0.301,-62.366 -27.61,-137.597 -74.455,-137.761c-60.506,-0.213 -75.654,134.132 -75.723,134.452Z" style="fill:#fff;"/></svg>