<?xml version="1.0" encoding="UTF-8" standalone="no"?><!DOCTYPE svg PUBLIC "-//W3C//DTD SVG 1.1//EN" "http://www.w3.org/Graphics/SVG/1.1/DTD/svg11.dtd"><svg width="100%" height="100%" viewBox="0 0 426 426" version="1.1" xmlns="http://www.w3.org/2000/svg" xmlns:xlink="http://www.w3.org/1999/xlink" xml:space="preserve" xmlns:serif="http://www.serif.com/" style="fill-rule:evenodd;clip-rule:evenodd;stroke-linejoin:round;stroke-miterlimit:1.41421;"><path d="M319.5,426l-213,0c-58.779,0 -106.5,-47.721 -106.5,-106.5l0,-213c0,-58.779 47.72,-106.499 106.5,-106.5l213,0c58.78,0.001 106.5,47.721 106.5,106.5l0,213c0,58.779 -47.721,106.5 -106.5,106.5Zm-10.756,-404.487l-191.488,0c-52.843,0.001 -95.743,42.902 -95.743,95.743l0,191.488c0,52.842 42.901,95.743 95.743,95.743l191.488,0c52.842,0 95.743,-42.901 95.743,-95.743l0,-191.488c0,-52.841 -42.9,-95.742 -95.743,-95.743Zm-10.499,361.976l-170.49,0c-47.047,0 -85.244,-38.197 -85.244,-85.244l0,-170.49c0,-36.746 23.301,-68.094 55.922,-80.059l0,94.308l40.623,-44.692l0,-54.801l159.189,0c47.048,0 85.244,38.197 85.244,85.244l0,170.49c0,47.047 -38.196,85.244 -85.244,85.244Zm29.322,-40.56c0.343,-73.764 -35.475,-195.509 -111.002,-194.076c-45.156,0.856 -74.792,54.917 -77.509,68.905l0,-99.311l-40.623,44.691l0,176.184l42.864,0c0.081,-0.479 15.1,-146.761 75.012,-146.529c46.405,0.178 73.457,82.167 73.756,150.136l37.502,0Z" style="fill:url(#_Radial1);"/><defs><radialGradient id="_Radial1" cx="0" cy="0" r="1" gradientUnits="userSpaceOnUse" gradientTransform="matrix(513.853,0,0,513.853,29.3532,33.1091)"><stop offset="0" style="stop-color:#009e6c;stop-opacity:1"/><stop offset="0.54" style="stop-color:#00ae87;stop-opacity:1"/><stop offset="1" style="stop-color:#00e6ea;stop-opacity:1"/></radialGradient></defs></svg>